<svg width="65" height="32" viewBox="0 0 65 32" fill="none" xmlns="http://www.w3.org/2000/svg">
<path d="M0 0H63C64.1046 0 65 0.895431 65 2V30C65 31.1046 64.1046 32 63 32H0V0Z" fill="white" fill-opacity="0.2"/>
<path d="M41.87 24.17L36.28 18.58C37.35 17.35 38 15.75 38 14C38 10.13 34.87 7 31 7C27.13 7 24 10.13 24 14C24 17.87 27.13 21 31 21C32.75 21 34.35 20.35 35.58 19.29L41.17 24.88L41.87 24.17ZM31 20C27.69 20 25 17.31 25 14C25 10.69 27.69 8 31 8C34.31 8 37 10.69 37 14C37 17.31 34.31 20 31 20Z" fill="white" fill-opacity="0.6"/>
</svg>
